<svg xmlns="http://www.w3.org/2000/svg" xmlns:svg="http://www.w3.org/2000/svg" id="svg4" width="24" height="24" version="1.1" viewBox="0 0 24 24"><metadata id="metadata10"/><path id="path2" d="m 12.254237,6.621469 c 1.00339,0 1.80791,-0.8135594 1.80791,-1.8079096 0,-0.3435029 -0.0904,-0.659887 -0.262147,-0.9310735 L 12.254237,1.1977402 10.708475,3.8824859 c -0.171752,0.2711865 -0.262147,0.5875706 -0.262147,0.9310735 a 1.8079096,1.8079096 0 0 0 1.807909,1.8079096 m 4.158192,9.039548 -0.967231,-0.976271 -0.976272,0.976271 c -1.175141,1.166102 -3.236158,1.175141 -4.420338,0 L 9.0903955,14.684746 8.0960452,15.661017 c -0.5875706,0.578531 -1.3740113,0.903955 -2.2056497,0.903955 -0.659887,0 -1.2655367,-0.20791 -1.7717514,-0.551412 v 4.167231 a 0.9039548,0.9039548 0 0 0 0.9039548,0.903955 H 19.485876 A 0.9039548,0.9039548 0 0 0 20.38983,20.180791 V 16.01356 c -0.506214,0.343502 -1.111864,0.551412 -1.771751,0.551412 -0.831638,0 -1.618079,-0.325424 -2.20565,-0.903955 M 17.677966,9.3333337 H 13.158192 V 7.5254238 h -1.80791 V 9.3333337 H 6.8305085 A 2.7118644,2.7118644 0 0 0 4.1186441,12.045198 v 1.39209 c 0,0.976272 0.7954802,1.771752 1.7717514,1.771752 0.4881356,0 0.940113,-0.180791 1.2474576,-0.515254 l 1.9525424,-1.925424 1.9073445,1.925424 c 0.668927,0.668926 1.835028,0.668926 2.503955,0 l 1.916384,-1.925424 1.943503,1.925424 c 0.316384,0.334463 0.768361,0.515254 1.247457,0.515254 0.976272,0 1.780791,-0.79548 1.780791,-1.771752 v -1.39209 A 2.7118644,2.7118644 0 0 0 17.677966,9.3333337 Z" style="fill:#ff7043;fill-opacity:1;stroke-width:.9039548"/></svg>