<svg xmlns="http://www.w3.org/2000/svg" xmlns:svg="http://www.w3.org/2000/svg" xmlns:xlink="http://www.w3.org/1999/xlink" id="Layer_1" x="0" y="0" version="1.1" viewBox="0 0 41 34.5" xml:space="preserve" style="enable-background:new 0 0 41 34.5"><metadata id="metadata41"/><style id="style2" type="text/css">.st0{fill:#fff}.st1{clip-path:url(#SVGID_4_)}</style><g id="g34" transform="translate(0.29237288,1.9004237)" style="fill:#0087c9;fill-opacity:1"><g id="g32" style="fill:#0087c9;fill-opacity:1"><g id="g30" style="fill:#0087c9;fill-opacity:1"><title id="title4">Group 3</title><desc id="desc6">Created with Sketch.</desc><g id="g28" style="fill:#0087c9;fill-opacity:1"><g id="g26" style="fill:#0087c9;fill-opacity:1"><g id="g9" style="fill:#0087c9;fill-opacity:1"><path id="SVGID_1_" d="m 8.7,24 c -1.1,0 -2.1,-0.9 -2.1,-2 0,-1.1 0.9,-2 2.1,-2 1.2,0 2.1,0.9 2.1,2 0,1.1 -1,2 -2.1,2 z M 34.5,13.1 C 34.3,11.5 33.3,10.2 32,9.2 L 31.5,8.8 31.1,9.3 c -0.8,0.9 -1.1,2.5 -1,3.7 0.1,0.9 0.4,1.8 0.9,2.5 -0.4,0.2 -0.9,0.4 -1.3,0.6 -0.9,0.3 -1.8,0.4 -2.7,0.4 H 1.1 L 1,17.1 C 0.8,19 1.1,21 1.9,22.8 l 0.4,0.7 v 0.1 c 2.4,4 6.7,5.8 11.4,5.8 9,0 16.4,-3.9 19.9,-12.3 2.3,0.1 4.6,-0.5 5.7,-2.7 l 0.3,-0.5 -0.5,-0.3 C 37.8,12.8 36,12.7 34.5,13.1 Z M 21.6,11.5 h -3.9 v 3.9 h 3.9 z m 0,-4.9 h -3.9 v 3.9 h 3.9 z m 0,-5 h -3.9 v 3.9 h 3.9 z m 4.8,9.9 h -3.9 v 3.9 h 3.9 z m -14.5,0 H 8 v 3.9 h 3.9 z m 4.9,0 h -3.9 v 3.9 h 3.9 z m -9.7,0 H 3.2 v 3.9 h 3.9 z m 9.7,-4.9 h -3.9 v 3.9 h 3.9 z m -4.9,0 H 8 v 3.9 h 3.9 z" class="st0" style="fill:#0087c9;fill-opacity:1"/></g><g id="g24" style="fill:#0087c9;fill-opacity:1"><defs id="defs12"><path id="SVGID_2_" d="m 8.7,24 c -1.1,0 -2.1,-0.9 -2.1,-2 0,-1.1 0.9,-2 2.1,-2 1.2,0 2.1,0.9 2.1,2 0,1.1 -1,2 -2.1,2 z M 34.5,13.1 C 34.3,11.5 33.3,10.2 32,9.2 L 31.5,8.8 31.1,9.3 c -0.8,0.9 -1.1,2.5 -1,3.7 0.1,0.9 0.4,1.8 0.9,2.5 -0.4,0.2 -0.9,0.4 -1.3,0.6 -0.9,0.3 -1.8,0.4 -2.7,0.4 H 1.1 L 1,17.1 C 0.8,19 1.1,21 1.9,22.8 l 0.4,0.7 v 0.1 c 2.4,4 6.7,5.8 11.4,5.8 9,0 16.4,-3.9 19.9,-12.3 2.3,0.1 4.6,-0.5 5.7,-2.7 l 0.3,-0.5 -0.5,-0.3 C 37.8,12.8 36,12.7 34.5,13.1 Z M 21.6,11.5 h -3.9 v 3.9 h 3.9 z m 0,-4.9 h -3.9 v 3.9 h 3.9 z m 0,-5 h -3.9 v 3.9 h 3.9 z m 4.8,9.9 h -3.9 v 3.9 h 3.9 z m -14.5,0 H 8 v 3.9 h 3.9 z m 4.9,0 h -3.9 v 3.9 h 3.9 z m -9.7,0 H 3.2 v 3.9 h 3.9 z m 9.7,-4.9 h -3.9 v 3.9 h 3.9 z m -4.9,0 H 8 v 3.9 h 3.9 z"/></defs><clipPath id="SVGID_4_"><use style="overflow:visible" id="use14" width="100%" height="100%" x="0" y="0" xlink:href="#SVGID_2_"/></clipPath><g id="g22" class="st1" clip-path="url(#SVGID_4_)" style="fill:#0087c9;fill-opacity:1"><g id="g20" style="fill:#0087c9;fill-opacity:1"><g id="g18" style="fill:#0087c9;fill-opacity:1"><rect id="SVGID_3_" width="1274.8" height="151.4" x="-48.8" y="-21" class="st0" style="fill:#0087c9;fill-opacity:1"/></g></g></g></g></g></g></g></g></g></svg>