<svg xmlns="http://www.w3.org/2000/svg" xmlns:svg="http://www.w3.org/2000/svg" id="Layer_1" width="323" height="323" x="0" y="0" enable-background="new 0 0 323.141 322.95" version="1.1" viewBox="0 0 323 323" xml:space="preserve"><metadata id="metadata23"/><g id="g16" transform="matrix(0.80529455,0,0,0.80529455,30.105509,31.52393)"><polygon id="polygon2" points="161.649 152.782 231.514 82.916 91.783 82.916" transform="matrix(0.97371938,0,0,0.97371938,3.3985881,5.0978823)" style="fill:#f0ad00"/><polygon id="polygon4" points="161.838 0 8.867 0 79.241 70.375 232.213 70.375" transform="matrix(0.97371938,0,0,0.97371938,3.3985881,5.0978823)" style="fill:#7fd13b"/><rect id="rect6" width="104.845" height="105.323" x="234.708" y="-110.227" transform="rotate(45)" style="fill:#7fd13b;stroke-width:.97371006"/><polygon id="polygon8" points="323.298 143.724 323.298 0 179.573 0" transform="matrix(0.97371938,0,0,0.97371938,3.3985881,5.0978823)" style="fill:#60b5cc"/><polygon id="polygon10" points="152.781 161.649 0 8.868 0 314.432" transform="matrix(0.97371938,0,0,0.97371938,3.3985881,5.0978823)" style="fill:#5a6378"/><polygon id="polygon12" points="255.522 246.655 323.298 314.432 323.298 178.879" transform="matrix(0.97371938,0,0,0.97371938,3.3985881,5.0978823)" style="fill:#f0ad00"/><polygon id="polygon14" points="161.649 170.517 8.869 323.298 314.43 323.298" transform="matrix(0.97371938,0,0,0.97371938,3.3985881,5.0978823)" style="fill:#60b5cc"/></g></svg>