<svg xmlns="http://www.w3.org/2000/svg" xmlns:xlink="http://www.w3.org/1999/xlink" width="100%" height="100%" version="1.1" viewBox="0 0 24 24" xml:space="preserve" style="fill-rule:evenodd;clip-rule:evenodd;stroke-linejoin:round;stroke-miterlimit:1.41421"><path id="path3338" d="M10,4L4,4C2.89,4 2,4.89 2,6L2,18C2,19.097 2.903,20 4,20L20,20C21.097,20 22,19.097 22,18L22,8C22,6.89 21.1,6 20,6L12,6L10,4Z" style="fill:#1565c0;fill-rule:nonzero"/><g id="path4"><path d="M5,3L4.35,6.34L17.94,6.34L17.5,8.5L3.92,8.5L3.26,11.83L16.85,11.83L16.09,15.64L10.61,17.45L5.86,15.64L6.19,14L2.85,14L2.06,18L9.91,21L18.96,18L20.16,11.97L20.4,10.76L21.94,3L5,3Z" transform="matrix(0.676056,0,0,0.676056,9.10732,7.38732)" style="fill:#42a5f5;fill-rule:nonzero"/></g></svg>