<svg xmlns="http://www.w3.org/2000/svg" xmlns:xlink="http://www.w3.org/1999/xlink" width="100%" height="100%" version="1.1" viewBox="0 0 24 24" xml:space="preserve" style="fill-rule:evenodd;clip-rule:evenodd;stroke-linejoin:round;stroke-miterlimit:1.41421"><path id="path2" d="M19,20L4,20C2.89,20 2,19.1 2,18L2,6C2,4.89 2.89,4 4,4L10,4L12,6L19,6C20.097,6 21,6.903 21,8L4,8L4,18L6.14,10L23.21,10L20.93,18.5C20.7,19.37 19.92,20 19,20Z" style="fill:#ef9a9a;fill-rule:nonzero"/><g id="path4"><path d="M9.62,12L12,5.67L14.37,12M11,3L5.5,17L7.75,17L8.87,14L15.12,14L16.25,17L18.5,17L13,3L11,3Z" transform="matrix(1,0,0,1,5,5.40278)" style="fill:#f44336;fill-rule:nonzero"/></g></svg>