<svg xmlns="http://www.w3.org/2000/svg" xmlns:xlink="http://www.w3.org/1999/xlink" width="100%" height="100%" version="1.1" viewBox="0 0 24 24" xml:space="preserve" style="fill-rule:evenodd;clip-rule:evenodd;stroke-linejoin:round;stroke-miterlimit:1.41421"><path id="path3338" d="M10,4L4,4C2.89,4 2,4.89 2,6L2,18C2,19.097 2.903,20 4,20L20,20C21.097,20 22,19.097 22,18L22,8C22,6.89 21.1,6 20,6L12,6L10,4Z" style="fill:#64b5f6;fill-rule:nonzero"/><g id="path4"><path d="M17,8.5L12.25,12.32L17,16L17,8.5M4.7,18.4L2,16.7L2,7.7L5,6.7L9.3,10.03L18,2L22,4.5L22,20L17,22L9.34,14.66L4.7,18.4M5,14L6.86,12.28L5,10.5L5,14Z" transform="matrix(0.66157,0,0,0.66157,9.06116,7.67686)" style="fill:#0277bd;fill-rule:nonzero"/></g></svg>