<svg xmlns="http://www.w3.org/2000/svg" xmlns:svg="http://www.w3.org/2000/svg" id="svg23" version="1.1" viewBox="0 0 152.99 160.01"><metadata id="metadata27"/><defs id="defs4"><style id="style2">.cls-1{fill:#fff}.cls-2{fill:#515151}.cls-3{fill:#1d79bf}.cls-4{fill:#383838}</style></defs><title id="title6">Asset 3</title><g id="Layer_2" data-name="Layer 2" transform="matrix(0.87284572,0,0,0.87284572,10.170127,10.174558)"><g id="Fuse_Box" data-name="Fuse Box"><g id="LOGO"><polygon id="polygon8" points="76.56 2.19 150.78 27.12 143.08 114.89 77.67 157.55 7.88 113.62 2.18 27.49" class="cls-1" style="fill:#fff"/><path id="path10" d="M 77.69,160 5.87,114.81 0,26 76.55,0 153,25.67 l -7.94,90.4 z M 9.88,112.43 77.65,155.09 141.1,113.7 148.57,28.57 76.57,4.39 4.36,28.95 Z" class="cls-2" style="fill:#515151"/><polygon id="polygon12" points="76.4 148.8 76.4 61.68 143.33 31.86 137.34 110.63" class="cls-3" style="fill:#1d79bf"/><polygon id="F" points="76.4 148.8 16.05 111.41 9.63 31.8 76.4 61.68" class="cls-4" style="fill:#383838"/><path id="path15" d="m 25.58,52.73 0.54,15.93 37.35,18.18 0.12,14.69 -37,-18.21 1.64,37.1 -14.56,-9 -5.05,-80.55 67.79,30.82 v 15.46 z" class="cls-1" style="fill:#fff"/><path id="path17" d="m 135.91,90.77 c -0.08,13.12 -6.33,26.59 -16.77,33.12 l -42.8,27.93 V 61.71 l 42.27,-18.84 c 5.16,-2.41 9.51,-1.43 12.4,3.11 1.9,3 2.89,7.23 2.86,12.21 A 35.69,35.69 0 0 1 129.34,76 c 4.29,2 6.66,6.55 6.57,14.77 z M 123,63.76 c 0,-4.64 -2,-6.93 -4.92,-5.45 L 89.08,72.79 89,90 118.44,74.41 C 120.94,73.09 123,68.5 123,63.76 Z M 125.15,96 c 0,-5.71 -2.42,-8.24 -6.55,-5.93 L 89,106.64 v 19.58 l 29.34,-17.46 c 4.43,-2.64 6.79,-7.27 6.81,-12.76 z" class="cls-1" style="fill:#fff"/><polygon id="TOP" points="76.4 8.82 9.71 31.77 119.48 34.15 35.46 43.36 76.4 61.68 97.16 52.43 69.43 51.06 119.21 42.6 143.33 31.86" class="cls-4" style="fill:#383838"/></g></g></g></svg>