<svg xmlns="http://www.w3.org/2000/svg" xmlns:xlink="http://www.w3.org/1999/xlink" width="494" height="455" version="1.1" viewBox="0 0 494 455"><title>logo</title><desc>Created with Sketch.</desc><defs><path id="path-1" d="m0 1173.3h2e3v-1173.3h-2e3v1173.3z"/></defs><g fill="none" fill-rule="evenodd" transform="matrix(.88256 0 0 .88256 30.072 24.097)"><g id="gitlab_logo"><g transform="translate(-359,-360) matrix(1 0 0 -1 0 1174.3)"><g id="g18-Clipped"><mask id="mask-2" fill="#fff"><use width="100%" height="100%" xlink:href="#path-1"/></mask><g mask="url(#mask-2)"><g><g><path fill="#fc6d26" d="m492 194.67-27.559 84.815-54.617 168.1c-2.8093 8.648-15.045 8.648-17.856 0l-54.619-168.1h-181.37l-54.62 168.1c-2.8093 8.648-15.045 8.648-17.856 0l-54.617-168.1-27.557-84.815c-2.5147-7.736 0.24-16.211 6.82-20.992l238.51-173.29 238.51 173.29c6.58 4.7813 9.3333 13.256 6.82 20.992" transform="translate(358.67 358.67) translate(.532 .77493)"/></g><g><path fill="#e24329" d="m92 0l90.684 279.1h-181.37z" transform="translate(358.67 358.67) translate(155.2 1.1603)"/></g><g><path fill="#fc6d26" d="m218.67 0-90.684 279.09h-127.09z" transform="translate(358.67 358.67) translate(28.531 1.1608)"/></g><g><path fill="#fca326" d="m29.333 280l-27.559-84.815c-2.5133-7.736 0.24-16.211 6.8213-20.991l238.51-173.29z" transform="translate(358.67 358.67) translate(.088533 .25587)"/></g><g><path fill="#e24329" d="m0 0h127.09l-54.619 168.1c-2.8107 8.6493-15.047 8.6493-17.856 0z" transform="translate(358.67 358.67) translate(29.422 280.26)"/></g><g><path fill="#fc6d26" d="m0 0 90.684 279.09h127.09z" transform="translate(358.67 358.67) translate(247.2 1.1608)"/></g><g><path fill="#fca326" d="m218.67 280l27.559-84.815c2.5133-7.736-0.24-16.211-6.8213-20.991l-238.51-173.29z" transform="translate(358.67 358.67) translate(246.31 .25587)"/></g><g><path fill="#e24329" d="m128 0h-127.09l54.619 168.1c2.8107 8.6493 15.047 8.6493 17.856 0z" transform="translate(358.67 358.67) translate(336.97 280.26)"/></g></g></g></g></g></g></g></svg>