<svg xmlns="http://www.w3.org/2000/svg" xmlns:svg="http://www.w3.org/2000/svg" id="svg2" width="24" height="24" version="1.1" viewBox="0 0 24 24"><metadata id="metadata10"/><path style="opacity:1;fill:#73cddc;fill-opacity:1;stroke:none;stroke-opacity:1" id="rect4135" d="m 10.575194,1.6953125 c -2.6340797,0 -4.7565185,2.4529827 -4.7565185,5.5017288 l 0,4.5995167 c -0.00877,-7.51e-4 -0.017765,-0.0015 -0.026536,-0.0022 l 0,4.710082 c 0,3.048747 2.1224385,5.501729 4.7565185,5.501729 l 2.286491,0 c 2.63408,0 4.756519,-2.452983 4.756519,-5.501729 l 0,-4.599516 c 0.0088,7.49e-4 0.01777,0.0015 0.02654,0.0022 l 0,-4.7100817 c 0,-3.0487472 -2.122439,-5.5017288 -4.756519,-5.5017288 l -2.28649,0 z"/><rect style="opacity:1;fill:#73cddc;fill-opacity:1;stroke:none;stroke-opacity:1" id="rect4140" width="2.289" height="3.335" x="-1.178" y="6.092" ry="1.125" transform="matrix(0.48489438,-0.87457272,0.85978898,0.5106495,0,0)"/><rect style="opacity:1;fill:#73cddc;fill-opacity:1;stroke:none;stroke-opacity:1" id="rect4140-2" width="2.297" height="3.39" x="10.261" y="-15.076" ry="1.143" transform="matrix(0.44646204,0.89480257,-0.89204093,0.45195461,0,0)"/><circle style="opacity:1;fill:#fff;fill-opacity:1;stroke:#5e5d5b;stroke-opacity:1;stroke-width:.1;stroke-miterlimit:4;stroke-dasharray:none" id="path4159" cx="9.267" cy="5.13" r="2.054"/><circle style="opacity:1;fill:#fff;fill-opacity:1;stroke:#5e5d5b;stroke-opacity:1;stroke-width:.1;stroke-miterlimit:4;stroke-dasharray:none" id="path4159-5" cx="14.214" cy="5.116" r="2.054"/><ellipse style="opacity:1;fill:#030d18;fill-opacity:1;stroke:none;stroke-opacity:1" id="path4159-9" cx="8.039" cy="5.051" rx=".792" ry=".901"/><path style="opacity:1;fill:#fff;fill-opacity:1;stroke:#fff;stroke-width:.15521361;stroke-miterlimit:4;stroke-dasharray:none;stroke-opacity:1" id="path4239-0" d="m 11.792091,9.5557475 0.763034,0.1383192 a 0.40286102,0.68855924 0 0 1 0.008,0.1383203 0.40286102,0.68855924 0 0 1 -0.402592,0.689226 0.40286102,0.68855924 0 0 1 -0.403317,-0.689226 0.40286102,0.68855924 0 0 1 0.03488,-0.2766395 z"/><ellipse style="opacity:1;fill:#fff;fill-opacity:1;stroke:none;stroke-opacity:1" id="path4159-0" cx="8.51" cy="5.365" rx=".138" ry=".166"/><ellipse style="opacity:1;fill:#030d18;fill-opacity:1;stroke:none;stroke-opacity:1" id="path4159-9-4" cx="12.945" cy="5.189" rx=".792" ry=".901"/><ellipse style="opacity:1;fill:#fff;fill-opacity:1;stroke:none;stroke-opacity:1" id="path4159-0-17" cx="13.414" cy="5.446" rx=".138" ry=".166"/><ellipse style="opacity:1;fill:#f6d2a1;fill-opacity:1;stroke:none;stroke-width:.40000001;stroke-miterlimit:4;stroke-dasharray:none;stroke-opacity:1" id="path4392" cx="-12.982" cy="-3.409" rx=".708" ry="1.026" transform="matrix(-0.63476926,-0.77270175,0.77270175,-0.63476926,0,0)"/><path style="opacity:1;fill:#fff;fill-opacity:1;stroke:#fff;stroke-width:.15268317;stroke-miterlimit:4;stroke-dasharray:none;stroke-opacity:1" id="path4239-0-4" d="m 11.77197,9.552612 -0.75678,0.1349518 a 0.39955943,0.67179659 0 0 0 -0.0079,0.1349522 0.39955943,0.67179659 0 0 0 0.399293,0.672447 0.39955943,0.67179659 0 0 0 0.400013,-0.672447 0.39955943,0.67179659 0 0 0 -0.0346,-0.269904 z"/><ellipse style="opacity:1;fill:#f6d2a1;fill-opacity:1;stroke:none;stroke-width:.40000001;stroke-miterlimit:4;stroke-dasharray:none;stroke-opacity:1" id="path4392-8" cx="1.841" cy="-21.563" rx=".707" ry="1.026" transform="matrix(0.63476926,-0.77270175,-0.77270175,-0.63476926,0,0)"/><ellipse style="opacity:1;fill:#f6d2a1;fill-opacity:1;stroke:none;stroke-width:.40000001;stroke-miterlimit:4;stroke-dasharray:none;stroke-opacity:1" id="path4392-8-7" cx="-17.281" cy="-21.784" rx=".864" ry="1.27" transform="matrix(0.30540118,-0.95222378,-0.97064754,-0.24050645,0,0)"/><ellipse style="opacity:1;fill:#f6d2a1;fill-opacity:1;stroke:none;stroke-width:.40000001;stroke-miterlimit:4;stroke-dasharray:none;stroke-opacity:1" id="path4392-8-7-2" cx="22.885" cy="2.587" rx=".864" ry="1.27" transform="matrix(0.22651675,0.97400727,0.95651906,-0.29166982,0,0)"/><path style="opacity:1;fill:#f6d2a1;fill-opacity:1;stroke:#657075;stroke-width:.1;stroke-miterlimit:4;stroke-dasharray:none;stroke-opacity:1" id="rect4208-0" d="m 10.707539,8.3920975 c -0.329337,0 -0.593772,0.2665331 -0.593772,0.5973405 l 0,0.114873 c 0,0.330807 0.264435,0.597342 0.593772,0.597342 l 0.386089,0 a 0.9734569,0.77194828 0 0 1 0.697156,-0.234342 0.9734569,0.77194828 0 0 1 0.698071,0.234342 l 0.33394,0 c 0.329337,0 0.594687,-0.266535 0.594687,-0.597342 l 0,-0.114873 c 0,-0.3308074 -0.26535,-0.5973405 -0.594687,-0.5973405 l -2.115256,0 z"/><ellipse style="opacity:1;fill:#030d18;fill-opacity:1;stroke:#fff;stroke-width:.16200256;stroke-miterlimit:4;stroke-dasharray:none;stroke-opacity:1" id="path4206-5-9" cx="11.734" cy="8.203" rx="1.208" ry=".68"/></svg>