<svg xmlns="http://www.w3.org/2000/svg" xmlns:svg="http://www.w3.org/2000/svg" id="svg2" width="53.333" height="53.333" version="1.1" viewBox="0 0 24 24"><metadata id="metadata10"/><path id="path4" d="M 21.718031,5.5034108 C 20.986565,4.1876161 19.67876,3.7946172 18.755024,3.7758134 c -1.133398,-0.022567 -2.064655,0.6050114 -1.88837,1.0172847 0.03761,0.088377 0.250089,0.5500104 0.380778,0.7408692 0.188977,0.275475 0.526505,0.063935 0.645439,9.407e-4 0.353511,-0.1880381 0.730997,-0.2491505 1.159725,-0.1988504 0.40945,0.047477 0.954291,0.2999203 1.319084,1.0013018 0.859333,1.6514423 -1.793411,5.0497556 -5.11369,2.6964627 C 11.938182,6.6805278 8.7095717,7.4604149 7.2475772,7.9347413 5.7855827,8.4085968 5.1133475,8.8857433 5.6915638,9.9885838 6.476622,11.487245 6.2161894,11.027493 6.9772728,12.268544 8.1863563,14.23824 10.832519,11.361261 10.832519,11.361261 8.8614123,14.267385 7.171422,13.565065 6.5231613,12.549191 5.9388336,11.633916 5.4851923,10.578084 5.4851923,10.578084 0.4918465,12.339058 1.8428988,20.113013 1.8428988,20.113013 h 2.4797493 c 0.6322773,-2.862406 2.8924926,-2.756635 3.2798506,0 H 9.49463 c 1.673536,-5.589424 5.914261,0 5.914261,0 h 2.466586 c -0.691039,-3.812467 1.38725,-5.010739 2.696934,-7.245568 1.309683,-2.235302 2.550733,-4.9693717 1.14562,-7.3640342 z M 15.35624,12.865094 c -1.304042,-0.425905 -0.837239,-1.723368 -0.837239,-1.723368 0,0 1.13857,0.368085 2.67907,0.870616 -0.08884,0.402401 -0.855103,1.174297 -1.841831,0.852282 z" style="fill:#0097a7;fill-opacity:1;stroke-width:.47009465"/></svg>