<svg xmlns="http://www.w3.org/2000/svg" xmlns:svg="http://www.w3.org/2000/svg" id="svg4499" version="1.1" viewBox="0 0 400 400"><metadata id="metadata4505"/><path id="path4485" d="M 67.007904,293.02209 53.864623,285.4338 200.28201,31.838703 213.4253,39.426991 Z" style="fill:#ec407a;fill-opacity:1;stroke-width:6.80314961;stroke-miterlimit:4;stroke-dasharray:none;stroke:#ec407a;stroke-opacity:1"/><path id="path4487" d="M 50.854907,265.17399 H 343.68969 v 15.17657 H 50.854907 Z" style="fill:#ec407a;fill-opacity:1;stroke-width:6.80314961;stroke-miterlimit:4;stroke-dasharray:none;stroke:#ec407a;stroke-opacity:1"/><path id="path4489" d="M 203.12168,358.26857 56.649434,273.7003 64.237722,260.55702 210.70997,345.12529 Z M 330.36173,137.86171 183.88948,53.293444 l 7.58829,-13.14328 146.47224,84.568266 z" style="fill:#ec407a;fill-opacity:1;stroke-width:6.80314961;stroke-miterlimit:4;stroke-dasharray:none;stroke:#ec407a;stroke-opacity:1"/><path id="path4491" d="M 64.277949,137.8032 56.689661,124.66084 203.16191,40.092566 210.7502,53.235846 Z" style="fill:#ec407a;fill-opacity:1;stroke-width:6.80314961;stroke-miterlimit:4;stroke-dasharray:none;stroke:#ec407a;stroke-opacity:1"/><path id="path4493" d="M 327.66103,293.02483 181.24364,39.429733 194.38692,31.841445 340.80431,285.43654 Z M 62.465902,114.59676 H 77.642478 V 283.73329 H 62.465902 Z m 254.527638,0 h 15.17658 v 169.13653 h -15.17658 z" style="fill:#ec407a;fill-opacity:1;stroke-width:6.80314961;stroke-miterlimit:4;stroke-dasharray:none;stroke:#ec407a;stroke-opacity:1"/><path id="path4495" d="m 200.53801,351.84504 -6.62833,-11.48118 127.39181,-73.55153 6.62833,11.48025 z" style="fill:#ec407a;fill-opacity:1;stroke-width:6.80314961;stroke-miterlimit:4;stroke-dasharray:none;stroke:#ec407a;stroke-opacity:1"/><path id="path4497" d="m 352.28365,288.67025 c -8.77681,15.268 -28.3418,20.47924 -43.6098,11.70242 -15.268,-8.77681 -20.47923,-28.3418 -11.70242,-43.6098 8.77682,-15.268 28.3418,-20.47923 43.6098,-11.70242 15.35943,8.86824 20.57066,28.3418 11.70242,43.6098 M 97.573162,141.56718 c -8.776815,15.268 -28.341798,20.47923 -43.609799,11.70242 -15.268002,-8.77682 -20.479235,-28.3418 -11.70242,-43.6098 8.776815,-15.268001 28.341798,-20.479241 43.609799,-11.702421 15.267998,8.868241 20.479238,28.341791 11.70242,43.609801 M 42.352368,288.67025 c -8.776815,-15.268 -3.565581,-34.74156 11.70242,-43.6098 15.268001,-8.77681 34.741559,-3.56558 43.609799,11.70242 8.776813,15.268 3.565583,34.74156 -11.70242,43.6098 -15.359426,8.77682 -34.832984,3.56558 -43.609799,-11.70242 M 297.06286,141.56718 c -8.77682,-15.26801 -3.56558,-34.74156 11.70242,-43.609801 15.268,-8.77682 34.74156,-3.56558 43.6098,11.702421 8.77681,15.268 3.56558,34.74156 -11.70242,43.6098 -15.26801,8.77681 -34.83299,3.56558 -43.6098,-11.70242 m -99.74485,236.6083 c -17.64505,0 -31.90738,-14.26232 -31.90738,-31.90738 0,-17.64505 14.26233,-31.90738 31.90738,-31.90738 17.64506,0 31.90738,14.26233 31.90738,31.90738 0,17.55363 -14.26232,31.90738 -31.90738,31.90738 m 0,-294.206151 c -17.64505,0 -31.90738,-14.262327 -31.90738,-31.907382 0,-17.645055 14.26233,-31.907379 31.90738,-31.907379 17.64506,0 31.90738,14.262324 31.90738,31.907379 0,17.645055 -14.26232,31.907382 -31.90738,31.907382" style="fill:#ec407a;fill-opacity:1;stroke-width:6.80314961;stroke-miterlimit:4;stroke-dasharray:none;stroke:#ec407a;stroke-opacity:1"/></svg>