<svg xmlns="http://www.w3.org/2000/svg" xmlns:svg="http://www.w3.org/2000/svg" id="svg2" width="24" height="24" version="1.1" viewBox="0 0 24 24"><metadata id="metadata10"/><path style="fill:#e53935;fill-opacity:1" id="path4168" d="m 8.3692053,15.940678 c -0.266448,-2.698729 -0.482927,-4.941102 -0.481065,-4.983051 0.0019,-0.04195 -0.225428,-0.07627 -0.505089,-0.07627 l -0.508475,0 0,-0.9661019 0,-0.9661015 1.983051,0 1.9830507,0 0,-1.875384 0,-1.8753841 1.871418,-1.1246159 c 1.139736,-0.6849163 1.977764,-1.124616 2.143417,-1.124616 0.400005,0 0.866522,0.5054519 0.866522,0.938842 0,0.189375 -0.0572,0.4221339 -0.127119,0.5172422 -0.06991,0.095108 -0.722034,0.5295787 -1.449153,0.9654898 l -1.322035,0.7925658 -0.02829,1.3929301 -0.02829,1.3929301 1.985922,0 1.985921,0 0,0.9661015 0,0.9661019 -0.489828,0 -0.489827,0 -0.494922,4.983051 -0.494921,4.983051 -2.957915,0 -2.9579137,0 -0.484452,-4.90678 z"/></svg>