<svg xmlns="http://www.w3.org/2000/svg" xmlns:svg="http://www.w3.org/2000/svg" id="svg8" width="210mm" height="210mm" version="1.1" viewBox="0 0 210 210"><metadata id="metadata5"/><g id="layer1" transform="translate(0,-87)"><rect style="fill:#f68712;fill-opacity:1;stroke-width:.22110496" id="rect5036" width="89.705" height="89.705" x="-105.193" y="165.693" transform="rotate(-45)"/><path style="fill:#fab20b;fill-opacity:1;stroke-width:.26588854" id="path5038" d="M 42.799499,191.59182 31.194333,148.28075 19.589167,104.96968 62.900236,116.57485 106.2113,128.18001 74.505399,159.88592 Z"/><path style="fill:#fbc707;fill-opacity:1;stroke-width:.26458332" id="path5042" d="M 49.250089,81.420445 -6.9490066,81.652069 -63.148105,81.420444 -35.249149,32.634787 -6.9490072,-15.919247 21.351133,32.634786 Z" transform="matrix(0.76839616,0.20589113,-0.03053297,0.1139506,70.597937,108.69341)"/><path style="fill:#fff200;fill-opacity:1;stroke-width:.26458332" id="path5042-7" d="M 49.250089,81.420445 -6.9490066,81.652069 -63.148105,81.420444 -35.249149,32.634787 -6.9490072,-15.919247 21.351133,32.634786 Z" transform="matrix(-0.20589114,-0.76839617,0.1139506,-0.03053297,20.451416,145.29927)"/><path style="fill:#f47216;fill-opacity:1;stroke-width:.26588854" id="path5038-6" d="M 97.071876,245.81702 85.46671,202.50595 73.861544,159.19489 l 43.311066,11.60516 43.31107,11.60517 -31.7059,31.7059 z" transform="rotate(90,160.49344,191.55441)"/><path style="fill:#f1471d;fill-opacity:1;stroke-width:.26458332" id="path5042-0" d="M 49.250089,81.420445 -6.9490066,81.652069 -63.148105,81.420444 -35.249149,32.634787 -6.9490072,-15.919247 21.351133,32.634786 Z" transform="matrix(-0.20589113,0.76839617,-0.1139506,-0.03053297,189.12923,155.9313)"/><path style="fill:#fbc707;fill-opacity:1;stroke-width:.26458332" id="path5042-7-6" d="M 49.250089,81.420445 -6.9490066,81.652069 -63.148105,81.420444 -35.249149,32.634787 -6.9490072,-15.919247 21.351133,32.634786 Z" transform="matrix(0.76839617,-0.20589114,0.03053297,0.1139506,152.52337,105.78478)"/><path style="fill:#f25c19;fill-opacity:1;stroke-width:.26588854" id="path5038-6-5" d="m -169.64263,-191.54466 -11.60517,-43.31106 -11.60516,-43.31107 43.31106,11.60516 43.31107,11.60517 -31.7059,31.7059 z" transform="scale(-1)"/><path style="fill:#f68712;fill-opacity:1;stroke-width:.26458332" id="path5042-0-6" d="M 49.250089,81.420445 -6.9490066,81.652069 -63.148105,81.420444 -35.249149,32.634787 -6.9490072,-15.919247 21.351133,32.634786 Z" transform="matrix(-0.76839617,-0.20589113,0.03053297,-0.1139506,141.84418,274.44306)"/><path style="fill:#f1471d;fill-opacity:1;stroke-width:.26458332" id="path5042-7-6-7" d="M 49.250089,81.420445 -6.9490066,81.652069 -63.148105,81.420444 -35.249149,32.634787 -6.9490072,-15.919247 21.351133,32.634786 Z" transform="matrix(0.20589114,0.76839617,-0.1139506,0.03053297,191.9907,237.8372)"/><path style="fill:#f89c0e;fill-opacity:1;stroke-width:.26588854" id="path5038-6-5-6" d="m -84.356682,-182.25144 -11.605166,-43.31107 -11.605162,-43.31107 43.311064,11.60517 43.311066,11.60516 -31.705902,31.70591 z" transform="rotate(-90,229.54102,-58.921719)"/><path style="fill:#fff200;fill-opacity:1;stroke-width:.26458332" id="path5042-0-6-8" d="M 49.250089,81.420445 -6.9490066,81.652069 -63.148105,81.420444 -35.249149,32.634787 -6.9490072,-15.919247 21.351133,32.634786 Z" transform="matrix(0.20589113,-0.76839617,0.1139506,0.03053297,23.312903,227.17754)"/><path style="fill:#f25c19;fill-opacity:1;stroke-width:.26458332" id="path5042-7-6-7-0" d="M 49.250089,81.420445 -6.9490066,81.652069 -63.148105,81.420444 -35.249149,32.634787 -6.9490072,-15.919247 21.351133,32.634786 Z" transform="matrix(-0.76839617,0.20589114,-0.03053297,-0.1139506,59.918763,277.32406)"/></g></svg>