<svg xmlns="http://www.w3.org/2000/svg" xmlns:svg="http://www.w3.org/2000/svg" id="svg20" x="0" y="0" enable-background="new 0 0 144 152" version="1.1" viewBox="0 0 144 152" xml:space="preserve"><metadata id="metadata26"/><g id="purple" transform="matrix(1.5939736,0,0,1.5939736,-41.993221,-44.104331)" style="fill:#6963b9;fill-opacity:1"><path id="path17" d="M 100.8,36 H 43.2 C 39.224,36 36,39.224 36,43.2 v 65.6 c 0,3.976 3.224,7.2 7.2,7.2 h 57.6 c 3.976,0 7.2,-3.224 7.2,-7.2 V 43.2 C 108,39.224 104.776,36 100.8,36 Z M 54,104 V 88 l 9,8 z m 28,0 V 80.11 C 81.961,78.243 81.062,76 77,76 68.866,76 59.742,80.091 59.651,80.132 L 54,82.692 V 48 h 8 V 70.711 C 65.994,69.411 71.577,68 77,68 c 4.945,0 7.905,1.944 9.517,3.575 3.441,3.48 3.488,7.913 3.483,8.425 v 24 z m 2,-43 h -8 c 3.144,-4.125 5.118,-8.466 6,-13 h 8 c -0.54,4.544 -2.382,8.9 -6,13 z" style="fill:#6963b9;fill-opacity:1"/></g></svg>