<svg xmlns="http://www.w3.org/2000/svg" xmlns:svg="http://www.w3.org/2000/svg" id="svg8" width="40mm" height="40mm" version="1.1" viewBox="0 0 40 40"><metadata id="metadata5"/><g id="layer1" transform="translate(0,-257)"><rect style="fill:#317eac;fill-opacity:1;fill-rule:nonzero;stroke:none;stroke-width:3.29947233;stroke-miterlimit:4;stroke-dasharray:none;stroke-opacity:1" id="rect4485" width="3.685" height="34.207" x="5.419" y="260.18"/><rect style="fill:#317eac;fill-opacity:1;fill-rule:nonzero;stroke:none;stroke-width:3.29947233;stroke-miterlimit:4;stroke-dasharray:none;stroke-opacity:1" id="rect4485-3" width="3.685" height="34.207" x="288.197" y="-37.074" transform="rotate(90)"/><rect style="fill:#317eac;fill-opacity:1;fill-rule:nonzero;stroke:none;stroke-width:2.89382863;stroke-miterlimit:4;stroke-dasharray:none;stroke-opacity:1" id="rect4485-3-3" width="2.835" height="34.207" x="208.787" y="166.91" transform="rotate(45)"/><rect style="fill:#317eac;fill-opacity:1;fill-rule:nonzero;stroke:none;stroke-width:2.3249445;stroke-miterlimit:4;stroke-dasharray:none;stroke-opacity:1" id="rect4485-3-3-9" width="2.835" height="22.08" x="10.73" y="262.471"/><rect style="fill:#317eac;fill-opacity:1;fill-rule:nonzero;stroke:none;stroke-width:2.06282306;stroke-miterlimit:4;stroke-dasharray:none;stroke-opacity:1" id="rect4485-3-3-9-8" width="2.835" height="17.382" x="15.36" y="262.519"/><rect style="fill:#317eac;fill-opacity:1;fill-rule:nonzero;stroke:none;stroke-width:1.7703042;stroke-miterlimit:4;stroke-dasharray:none;stroke-opacity:1" id="rect4485-3-3-9-8-6" width="2.835" height="12.802" x="19.99" y="262.471"/><rect style="fill:#317eac;fill-opacity:1;fill-rule:nonzero;stroke:none;stroke-width:1.42153919;stroke-miterlimit:4;stroke-dasharray:none;stroke-opacity:1" id="rect4485-3-3-9-8-6-7" width="2.835" height="8.254" x="24.526" y="262.491"/><rect style="fill:#317eac;fill-opacity:1;fill-rule:nonzero;stroke:none;stroke-width:1.1279763;stroke-miterlimit:4;stroke-dasharray:none;stroke-opacity:1" id="rect4485-3-3-9-8-6-7-7" width="2.835" height="5.197" x="28.783" y="262.463"/><rect style="fill:#317eac;fill-opacity:1;fill-rule:nonzero;stroke:none;stroke-width:2.32494473;stroke-miterlimit:4;stroke-dasharray:none;stroke-opacity:1" id="rect4485-3-3-9-0" width="2.835" height="22.08" x="-286.545" y="-34.801" transform="matrix(0,-1,-1,0,0,0)"/><rect style="fill:#317eac;fill-opacity:1;fill-rule:nonzero;stroke:none;stroke-width:2.06282306;stroke-miterlimit:4;stroke-dasharray:none;stroke-opacity:1" id="rect4485-3-3-9-8-64" width="2.835" height="17.382" x="-281.914" y="-34.753" transform="matrix(0,-1,-1,0,0,0)"/><rect style="fill:#317eac;fill-opacity:1;fill-rule:nonzero;stroke:none;stroke-width:1.7703042;stroke-miterlimit:4;stroke-dasharray:none;stroke-opacity:1" id="rect4485-3-3-9-8-6-2" width="2.835" height="12.802" x="-277.284" y="-34.801" transform="matrix(0,-1,-1,0,0,0)"/><rect style="fill:#317eac;fill-opacity:1;fill-rule:nonzero;stroke:none;stroke-width:1.42153919;stroke-miterlimit:4;stroke-dasharray:none;stroke-opacity:1" id="rect4485-3-3-9-8-6-7-0" width="2.835" height="8.254" x="-272.749" y="-34.781" transform="matrix(0,-1,-1,0,0,0)"/><rect style="fill:#317eac;fill-opacity:1;fill-rule:nonzero;stroke:none;stroke-width:1.1279763;stroke-miterlimit:4;stroke-dasharray:none;stroke-opacity:1" id="rect4485-3-3-9-8-6-7-7-1" width="2.835" height="5.197" x="-268.492" y="-34.809" transform="matrix(0,-1,-1,0,0,0)"/></g></svg>