<svg xmlns="http://www.w3.org/2000/svg" xmlns:svg="http://www.w3.org/2000/svg" id="svg2" width="24" height="24" version="1.1" viewBox="0 0 24 24"><metadata id="metadata10"/><circle style="fill:none;fill-opacity:1;stroke:#42a5f5;stroke-opacity:1" id="path4142" cx="12.203" cy="12.102" r="10.322"/><path style="fill:#42a5f5;fill-opacity:1;fill-rule:evenodd;stroke:none;stroke-width:1px;stroke-linecap:butt;stroke-linejoin:miter;stroke-opacity:1" id="ellipse4144" d="M 12.330078 5.7460938 A 6.4830503 6.3813553 0 0 0 5.8476562 12.126953 A 6.4830503 6.3813553 0 0 0 12.330078 18.507812 A 6.4830503 6.3813553 0 0 0 18.814453 12.126953 A 6.4830503 6.3813553 0 0 0 12.330078 5.7460938 z M 14.189453 7.6621094 A 2.3290315 2.2924976 0 0 1 16.519531 9.9550781 A 2.3290315 2.2924976 0 0 1 14.189453 12.246094 A 2.3290315 2.2924976 0 0 1 11.861328 9.9550781 A 2.3290315 2.2924976 0 0 1 14.189453 7.6621094 z"/><ellipse id="ellipse4151" cx="19.631" cy="4.615" rx="2.329" ry="2.292" style="fill:#42a5f5;fill-opacity:1;fill-rule:evenodd;stroke:none;stroke-width:1px;stroke-linecap:butt;stroke-linejoin:miter;stroke-opacity:1"/></svg>