<svg xmlns="http://www.w3.org/2000/svg" xmlns:svg="http://www.w3.org/2000/svg" id="svg3336" width="24" height="24" preserveAspectRatio="xMidYMid" version="1.1" viewBox="0 0 24 24"><metadata id="metadata3426"/><defs id="defs3338"><linearGradient id="linearGradient-1" x1="98.768" x2="98.768" y1="82.878" y2="29.178" gradientTransform="matrix(0.11138133,0,0,0.07890966,-4.3550775,148.34035)" gradientUnits="userSpaceOnUse"><stop id="stop3341" offset="0%" stop-color="#8AC23E"/><stop id="stop3343" offset="100%" stop-color="#8AC23E" stop-opacity="0"/></linearGradient><linearGradient id="linearGradient-2" x1="111.478" x2="111.478" y1=".034" y2="53.692" gradientTransform="matrix(0.11129401,0,0,0.07897157,-4.3550775,148.34035)" gradientUnits="userSpaceOnUse"><stop id="stop3346" offset="0%" stop-color="#698932"/><stop id="stop3348" offset="100%" stop-color="#698932" stop-opacity="0"/></linearGradient><linearGradient id="linearGradient-3" x1="134.704" x2="134.704" y1=".034" y2="53.734" gradientTransform="matrix(0.11138133,0,0,0.07890966,-4.3550775,148.34035)" gradientUnits="userSpaceOnUse"><stop id="stop3351" offset="0%" stop-color="#FFED01"/><stop id="stop3353" offset="100%" stop-color="#FFED01" stop-opacity="0"/></linearGradient><linearGradient id="linearGradient-4" x1="175.925" x2="175.925" y1=".034" y2="53.75" gradientTransform="matrix(0.11138133,0,0,0.07890966,-4.3550775,148.34035)" gradientUnits="userSpaceOnUse"><stop id="stop3356" offset="0%" stop-color="#E02A89"/><stop id="stop3358" offset="100%" stop-color="#E02A89" stop-opacity="0"/></linearGradient><linearGradient id="linearGradient-5" x1="188.606" x2="188.606" y1="82.878" y2="136.578" gradientTransform="matrix(0.11138133,0,0,0.07890966,-4.3550775,148.34035)" gradientUnits="userSpaceOnUse"><stop id="stop3361" offset="0%" stop-color="#7F1E4F"/><stop id="stop3363" offset="100%" stop-color="#7F1E4F" stop-opacity="0"/></linearGradient><linearGradient id="linearGradient-6" x1="147.364" x2="147.364" y1="82.878" y2="136.578" gradientTransform="matrix(0.11138133,0,0,0.07890966,-4.3550775,148.34035)" gradientUnits="userSpaceOnUse"><stop id="stop3366" offset="0%" stop-color="#E95506"/><stop id="stop3368" offset="100%" stop-color="#E95506" stop-opacity="0"/></linearGradient><linearGradient id="linearGradient-7" x1="26.838" x2="26.838" y1="82.878" y2="29.212" gradientTransform="matrix(0.11138133,0,0,0.07890966,-11.167578,149.52785)" gradientUnits="userSpaceOnUse"><stop id="stop3371" offset="0%" stop-color="#88D0F1"/><stop id="stop3373" offset="100%" stop-color="#88D0F1" stop-opacity="0"/></linearGradient><linearGradient id="linearGradient-8" x1="39.487" x2="39.487" y1=".034" y2="53.7" gradientTransform="matrix(0.11138133,0,0,0.07890966,-10.667578,147.65285)" gradientUnits="userSpaceOnUse"><stop id="stop3376" offset="0%" stop-color="#00828B"/><stop id="stop3378" offset="83.25%" stop-color="#00828B" stop-opacity="0"/></linearGradient><linearGradient id="linearGradient-9" x1="39.507" x2="39.507" y1="165.592" y2="111.985" gradientTransform="matrix(0.11129401,0,0,0.07897157,-4.3550775,148.34035)" gradientUnits="userSpaceOnUse"><stop id="stop3381" offset="0%" stop-color="#2073BA"/><stop id="stop3383" offset="100%" stop-color="#2073BA" stop-opacity="0"/></linearGradient><linearGradient id="linearGradient-10" x1="62.801" x2="62.801" y1=".034" y2="53.7" gradientTransform="matrix(0.11138133,0,0,0.07890966,-4.3550775,148.34035)" gradientUnits="userSpaceOnUse"><stop id="stop3386" offset="0%" stop-color="#8ED0E1"/><stop id="stop3388" offset="100%" stop-color="#88D0F1" stop-opacity="0"/></linearGradient></defs><g id="g3390" transform="translate(0,-115.5)"><g id="g3428" transform="translate(0,-5.46094)"><path style="fill:#2196f3;fill-opacity:1;stroke-width:.98413146" id="path3396" d="m 4.001653,126.48243 c -0.655062,1.07025 -1.320482,2.13878 -1.975545,3.20902 -0.655062,1.06102 -1.30854495,2.14276 -1.96360795,3.213 l 0.002,0.002 -0.002,0.002 c 0.655063,1.07025 1.30854595,2.15 1.96360795,3.21101 0.655063,1.07024 1.320483,2.14076 1.975545,3.21101 h 3.330375 c -0.664289,-1.07031 -1.318493,-2.14077 -1.973555,-3.21101 -0.653861,-1.06828 -1.30776,-2.14468 -1.961619,-3.213 0.653859,-1.0683 1.307758,-2.14671 1.961619,-3.21498 0.655062,-1.07024 1.309266,-2.13878 1.973555,-3.20902 z"/><path style="fill:#26a69a;fill-opacity:1;stroke-width:.98413146" id="path3396-0-4" d="m 3.998933,126.48186 -0.002,0.002 c 0.655063,1.07024 1.309356,2.15087 1.964419,3.21189 0.655062,1.07024 1.318967,2.13971 1.974029,3.20995 h 3.331059 c -0.664289,-1.0702 -1.318967,-2.13967 -1.97403,-3.20991 -0.653859,-1.06828 -1.306715,-2.14549 -1.960574,-3.21381 z"/><path style="fill:#8bc34a;fill-opacity:1;stroke-width:.98413146" id="path3396-0-4-8" d="m 15.202949,126.48186 0.0019,0.002 c -0.655064,1.07024 -1.309356,2.15087 -1.964419,3.21189 -0.655062,1.07024 -1.318967,2.13971 -1.97403,3.20995 H 7.935413 c 0.664289,-1.07024 1.318967,-2.13971 1.97403,-3.20995 0.65386,-1.06828 1.306715,-2.14549 1.960575,-3.21381 z"/><path style="fill:#ffc107;fill-opacity:1;stroke-width:.98413146" id="path3396-7" d="m 11.873991,126.48442 c 0.664288,1.07025 1.318493,2.13878 1.973555,3.20902 0.65386,1.06828 1.307759,2.14667 1.961619,3.21499 -0.65386,1.0683 -1.307759,2.14472 -1.961619,3.21299 -0.655062,1.07025 -1.309267,2.13878 -1.973555,3.20902 h 3.330374 c 0.655063,-1.07024 1.318493,-2.13877 1.973556,-3.20902 0.655062,-1.06101 1.310534,-2.14076 1.965598,-3.211 l -0.002,-0.002 0.002,-0.002 c -0.655064,-1.07024 -1.310536,-2.15198 -1.965598,-3.21299 -0.655063,-1.07025 -1.318493,-2.13878 -1.973556,-3.20902 z"/><path style="fill:#f44336;fill-opacity:1;stroke-width:.98413146" id="path3396-7-0" d="m 16.740238,126.48243 c 0.664288,1.07025 1.318493,2.13878 1.973555,3.20902 0.65386,1.06828 1.30577,2.14668 1.959629,3.21499 -0.653859,1.06832 -1.305769,2.14472 -1.959629,3.21299 -0.655062,1.07025 -1.309267,2.14077 -1.973555,3.21101 h 3.330374 c 0.655063,-1.07024 1.318493,-2.14076 1.973556,-3.21101 0.655062,-1.06101 1.310535,-2.14076 1.965598,-3.211 l -0.002,-0.002 0.002,-0.002 c -0.655063,-1.07024 -1.310536,-2.15198 -1.965598,-3.21299 -0.655063,-1.07025 -1.318493,-2.13878 -1.973556,-3.20902 z"/></g></g></svg>