<svg xmlns="http://www.w3.org/2000/svg" xmlns:svg="http://www.w3.org/2000/svg" id="Layer_1" width="100" height="100" x="0" y="0" enable-background="new 0 0 821.326 907.827" version="1.1" viewBox="0 0 100 100" xml:space="preserve"><metadata id="metadata145"/><path id="path52" d="M 98.078937,38.547822 79.22076,19.680116 74.134392,24.767676 90.446997,41.089816 74.134392,57.410762 79.22076,62.49713 98.078937,43.636574 c 0.679285,-0.681679 1.054685,-1.587404 1.054685,-2.549143 -0.003,-0.961737 -0.37659,-1.862697 -1.054685,-2.539609" clip-path="url(#SVGID_2_)" style="display:inline;fill:#42a5f5;fill-opacity:1;stroke-width:1.19174492"/><path id="path50" d="M 25.482597,42.79401 20.393846,37.705259 1.5285196,56.568198 c -0.67691114,0.676911 -1.05111904,1.582638 -1.04873554,2.544375 0,0.961739 0.3718244,1.863891 1.04873554,2.541993 L 20.393846,80.519889 25.482597,75.433522 9.1616491,59.112573 Z" clip-path="url(#SVGID_2_)" style="display:inline;fill:#42a5f5;fill-opacity:1;stroke-width:1.19174492"/><polygon id="polygon48" points="281.841 551.736 288.302 557.773 316.681 557.773 310.22 551.736" clip-path="url(#SVGID_2_)" transform="matrix(1.191745,0,0,1.191745,-306.83908,-629.04743)" style="display:inline;fill:#42a5f5;fill-opacity:1"/><polygon id="polygon46" points="288.302 566.861 281.839 572.896 310.22 572.896 316.683 566.861" clip-path="url(#SVGID_2_)" transform="matrix(1.191745,0,0,1.191745,-306.83908,-629.04743)" style="display:inline;fill:#42a5f5;fill-opacity:1"/><polygon id="polygon44" points="281.838 581.982 288.302 588.017 316.683 588.017 310.22 581.982" clip-path="url(#SVGID_2_)" transform="matrix(1.191745,0,0,1.191745,-306.83908,-629.04743)" style="display:inline;fill:#42a5f5;fill-opacity:1"/></svg>