<svg xmlns="http://www.w3.org/2000/svg" xmlns:svg="http://www.w3.org/2000/svg" id="svg2" width="24" height="24" version="1.1" viewBox="0 0 24 24"><metadata id="metadata10"/><g id="layer2" style="display:inline"><path style="fill:#ff7043;fill-opacity:1;fill-rule:nonzero;stroke:none;stroke-width:9.60000038;stroke-miterlimit:1.41420996;stroke-dasharray:none;stroke-opacity:1" id="path4139" d="M 11.963149,1.403319 A 10.506729,10.506729 0 0 0 1.4551993,11.911268 10.506729,10.506729 0 0 0 11.963149,22.41742 10.506729,10.506729 0 0 0 22.469301,11.911268 10.506729,10.506729 0 0 0 11.963149,1.403319 Z m 0.05748,2.6207004 a 7.9455312,7.9455312 0 0 1 7.944727,7.9447266 7.9455312,7.9455312 0 0 1 -7.944729,7.946525 7.9455312,7.9455312 0 0 1 -7.9447272,-7.946525 7.9455312,7.9455312 0 0 1 7.9447272,-7.9447266 z"/><text style="font-style:normal;font-weight:400;font-size:91.87889862px;line-height:125%;font-family:sans-serif;letter-spacing:0;word-spacing:0;fill:#ff7043;fill-opacity:1;stroke:none;stroke-width:1px;stroke-linecap:butt;stroke-linejoin:miter;stroke-opacity:1" id="text4143" x="2.902" y="27.909" transform="scale(1.7065153,0.58598948)" xml:space="preserve"><tspan id="tspan4145" x="2.902" y="27.909" style="font-style:normal;font-variant:normal;font-weight:400;font-stretch:ultra-condensed;font-size:22.96972466px;font-family:Playbill;-inkscape-font-specification:'Playbill Ultra-Condensed';fill:#ff7043;fill-opacity:1">R</tspan></text></g></svg>