<svg xmlns="http://www.w3.org/2000/svg" xmlns:svg="http://www.w3.org/2000/svg" id="Layer_1" width="256" height="256" x="0" style="enable-background:new 0 0 256 256" y="0" version="1.1" viewBox="0 0 256 256" xml:space="preserve"><metadata id="metadata9"/><rect style="opacity:1;fill:#f44336;fill-opacity:1;fill-rule:evenodd;stroke:none;stroke-width:.30000001;stroke-miterlimit:4;stroke-dasharray:none;stroke-opacity:1" id="rect4140" width="150.709" height="49.488" x="60.251" y="59.435" transform="matrix(0.98930578,-0.14585636,0,1,0,0)"/><rect style="opacity:1;fill:#f44336;fill-opacity:1;fill-rule:evenodd;stroke:none;stroke-width:.30000001;stroke-miterlimit:4;stroke-dasharray:none;stroke-opacity:1" id="rect4140-0" width="150.709" height="49.488" x="60.237" y="122.866" transform="matrix(0.98930578,-0.14585636,0,1,0,0)"/><rect style="opacity:1;fill:#f44336;fill-opacity:1;fill-rule:evenodd;stroke:none;stroke-width:.30000001;stroke-miterlimit:4;stroke-dasharray:none;stroke-opacity:1" id="rect4140-0-7" width="150.709" height="49.488" x="60.231" y="186.143" transform="matrix(0.98930578,-0.14585636,0,1,0,0)"/><rect style="opacity:1;fill:#f44336;fill-opacity:1;fill-rule:evenodd;stroke:none;stroke-width:.30000001;stroke-miterlimit:4;stroke-dasharray:none;stroke-opacity:1" id="rect4187" width="100.481" height="9.204" x="87.528" y="67.767" transform="matrix(0.95146947,0.30774314,-0.30774314,0.95146947,0,0)"/><rect style="opacity:1;fill:#f44336;fill-opacity:1;fill-rule:evenodd;stroke:none;stroke-width:.30000001;stroke-miterlimit:4;stroke-dasharray:none;stroke-opacity:1" id="rect4187-3" width="100.481" height="9.204" x="126.408" y="23.362" transform="matrix(0.95146947,0.30774314,-0.30774314,0.95146947,0,0)"/><rect style="opacity:1;fill:#f44336;fill-opacity:1;fill-rule:evenodd;stroke:none;stroke-width:.30000001;stroke-miterlimit:4;stroke-dasharray:none;stroke-opacity:1" id="rect4187-3-4" width="100.481" height="9.204" x="107.031" y="128.067" transform="matrix(0.95146947,0.30774314,-0.30774314,0.95146947,0,0)"/><rect style="opacity:1;fill:#f44336;fill-opacity:1;fill-rule:evenodd;stroke:none;stroke-width:.30000001;stroke-miterlimit:4;stroke-dasharray:none;stroke-opacity:1" id="rect4187-3-4-1" width="100.481" height="9.204" x="145.894" y="83.566" transform="matrix(0.95146947,0.30774314,-0.30774314,0.95146947,0,0)"/></svg>