<svg xmlns="http://www.w3.org/2000/svg" xmlns:svg="http://www.w3.org/2000/svg" id="Layer_1" width="200" height="200" x="0" y="0" enable-background="new 0 0 393.3 241.4" version="1.1" viewBox="0 0 200 200" xml:space="preserve"><metadata id="metadata19"/><g id="g12" transform="translate(0,-41.399994)"><path id="path2" d="m 126.81424,197.29918 c 14.6394,-17.50988 16.36168,-35.59385 5.02332,-69.17837 -7.17618,-21.24149 -19.08864,-37.603176 -10.3337,-50.807346 9.32904,-14.065312 29.13529,-0.430571 12.63008,18.371015 l 3.30104,2.29638 c 19.80625,2.296381 29.56586,-24.829579 14.78293,-32.579853 -39.03842,-20.380349 -73.197037,18.80159 -58.12706,64.155044 6.45856,19.23216 15.50055,39.61251 8.18084,55.83067 -6.315034,13.92179 -18.514539,22.10265 -26.695383,22.3897 C 58.497,208.63756 69.835363,169.4556 89.498095,159.696 c 1.722283,-0.86114 4.162184,-2.00933 1.865806,-4.8798 -24.255486,-2.72695 -38.464321,8.46789 -46.645166,24.11196 -23.824915,45.49699 45.209931,62.28925 82.095505,18.37102 z" style="fill:#c0ca33;stroke-width:1.43523586;fill-opacity:1"/></g></svg>