<svg xmlns="http://www.w3.org/2000/svg" xmlns:svg="http://www.w3.org/2000/svg" id="svg4" width="24" height="24" version="1.1" viewBox="0 0 24 24"><metadata id="metadata10"/><path id="path2" d="M 17.282485,17.079096 H 6.7175141 V 6.5141242 H 17.282485 m 4.225989,4.2259888 V 8.6271186 H 19.39548 V 6.5141242 c 0,-1.1727118 -0.950848,-2.1129943 -2.112995,-2.1129943 H 15.169491 V 2.2881355 H 13.056497 V 4.4011299 H 10.943502 V 2.2881355 H 8.8305085 V 4.4011299 H 6.7175141 c -1.1727119,0 -2.1129943,0.9402825 -2.1129943,2.1129943 V 8.6271186 H 2.4915254 v 2.1129944 h 2.1129944 v 2.112995 H 2.4915254 v 2.112994 h 2.1129944 v 2.112994 a 2.1129944,2.1129944 0 0 0 2.1129943,2.112995 h 2.1129944 v 2.112994 h 2.1129935 v -2.112994 h 2.112995 v 2.112994 h 2.112994 v -2.112994 h 2.112994 a 2.1129944,2.1129944 0 0 0 2.112995,-2.112995 v -2.112994 h 2.112994 V 12.853108 H 19.39548 v -2.112995 m -6.338983,2.112995 h -2.112995 v -2.112995 h 2.112995 M 15.169491,8.6271186 H 8.8305085 v 6.3389834 h 6.3389825 z" style="fill:#ff7043;fill-opacity:1;stroke-width:1.05649722"/></svg>