<svg xmlns="http://www.w3.org/2000/svg" xmlns:svg="http://www.w3.org/2000/svg" xmlns:xlink="http://www.w3.org/1999/xlink" id="svg3336" width="533.333" height="533.333" version="1.1" viewBox="0 0 24 24"><metadata id="metadata3344"/><defs id="defs3342"><marker id="marker4526" orient="auto" refX="0" refY="0" style="overflow:visible"><path id="path4528" d="M 0,0 5,-5 -12.5,0 5,5 Z" transform="matrix(0.4,0,0,0.4,4,0)" style="fill-rule:evenodd;stroke:#000;stroke-width:1.00000003pt"/></marker><marker id="Arrow1Mstart" orient="auto" refX="0" refY="0" style="overflow:visible"><path id="path4254" d="M 0,0 5,-5 -12.5,0 5,5 Z" transform="matrix(0.4,0,0,0.4,4,0)" style="fill-rule:evenodd;stroke:#000;stroke-width:1.00000003pt"/></marker><marker id="Arrow1Lstart" orient="auto" refX="0" refY="0" style="overflow:visible"><path id="path4248" d="M 0,0 5,-5 -12.5,0 5,5 Z" transform="matrix(0.8,0,0,0.8,10,0)" style="fill-rule:evenodd;stroke:#000;stroke-width:1.00000003pt"/></marker><linearGradient id="linearGradient4215"><stop style="stop-color:#030a1e;stop-opacity:1" id="stop4217" offset="0"/><stop style="stop-color:#303d49;stop-opacity:0" id="stop4219" offset="1"/></linearGradient><linearGradient id="linearGradient4221" x1="11.955" x2="17.7" y1="8.762" y2="22.787" gradientTransform="translate(0.24533771,0.09)" gradientUnits="userSpaceOnUse" xlink:href="#linearGradient4215"/></defs><rect style="opacity:1;fill:#303d49;fill-opacity:1;stroke:#ff8e00;stroke-width:.40000001;stroke-linecap:butt;stroke-linejoin:miter;stroke-miterlimit:4;stroke-dasharray:none;stroke-dashoffset:0;stroke-opacity:1" id="rect4150" width="22.222" height="22.222" x=".95" y=".908" ry="3.625"/><path style="opacity:1;fill:url(#linearGradient4221);fill-opacity:1;stroke:none;stroke-width:.40000001;stroke-linecap:butt;stroke-linejoin:miter;stroke-miterlimit:4;stroke-dasharray:3.20000005,.40000001;stroke-dashoffset:0;stroke-opacity:1" id="rect4181" d="M 18.260963,8.9513282 6.1164315,15.963047 10.225677,22.913122 c 0.61623,0.105174 3.240529,-0.315888 3.885883,-0.268136 4.896302,0.362264 7.246053,0.120742 8.864947,-4.00677 z"/><path id="path3338-7" d="m 10.925231,6.8682589 -3.6945667,5e-7 c -0.6834936,-3e-7 -1.2315205,0.5480268 -1.2315206,1.2315213 l 10e-8,7.3891323 a 1.2315217,1.2315217 0 0 0 1.231521,1.231522 H 17.082839 A 1.2315217,1.2315217 0 0 0 18.31436,15.488913 V 9.3313019 c 0,-0.6834939 -0.554183,-1.2315211 -1.231521,-1.231521 h -4.926088 z" style="fill:#fffcff;fill-opacity:1;stroke:none;stroke-width:.40000001;stroke-linecap:butt;stroke-linejoin:miter;stroke-miterlimit:4;stroke-dasharray:3.20000005,.40000001;stroke-dashoffset:0;stroke-opacity:.7849829"/></svg>